# xmcd
# 
# Track frame offsets:
#     182
#     32115
#     67872
#     85537
#     107427
#     133140
#     155347
#     178265
#     206765
# 
# Disc length: 3114
# 
# Revision: 1
# Processed by: cddbd v1.5.2PL0 Copyright (c) Steve Scherf et al.
# Submitted via: BonkEnc v1.0
# 
DISCID=710c2809
DTITLE=Modern Juzz Quartet - Greatest Jazz
DYEAR=0
DGENRE=Jazz
TTITLE0=Django
TTITLE1=Softly As In A Morning Sunrise
TTITLE2=Over The Rainbow
TTITLE3=Willow Weep For Me
TTITLE4=Bags Groove
TTITLE5=I'll Remember April
TTITLE6=It Don't Mean A Thing(If it ain't got that swing)
TTITLE7=How High The Moon
TTITLE8=Summertime
EXTD=
EXTT0=
EXTT1=
EXTT2=
EXTT3=
EXTT4=
EXTT5=
EXTT6=
EXTT7=
EXTT8=
PLAYORDER=
